<svg xmlns="http://www.w3.org/2000/svg" version="1.1" xmlns:xlink="http://www.w3.org/1999/xlink" xmlns:svgjs="http://svgjs.dev/svgjs" width="1500" height="1500" viewBox="0 0 1500 1500"><rect width="1500" height="1500" fill="#000000"></rect><g transform="matrix(0.6666666666666666,0,0,0.6666666666666666,249.39393939393938,666.9047476401454)"><svg viewBox="0 0 396 65" data-background-color="#dedede" preserveAspectRatio="xMidYMid meet" height="246" width="1500" xmlns="http://www.w3.org/2000/svg" xmlns:xlink="http://www.w3.org/1999/xlink"><g id="tight-bounds" transform="matrix(1,0,0,1,0.2400000000000091,0.43409392311312445)"><svg viewBox="0 0 395.52 64.13181215377375" height="64.13181215377375" width="395.52"><g><svg viewBox="0 0 543.245813396456 88.08489699146831" height="64.13181215377375" width="395.52"><g><rect width="7.904066581397322" height="88.08489699146831" x="119.1304730417673" y="0" fill="#ffffff" opacity="1" stroke-width="0" stroke="transparent" fill-opacity="1" class="rect-yte-0" data-fill-palette-color="primary" rx="1%" id="yte-0" data-palette-color="#374151"></rect></g><g transform="matrix(1,0,0,1,147.72581339645603,0.21911665918275247)"><svg viewBox="0 0 395.52 87.64666367310281" height="87.64666367310281" width="395.52"><g id="textblocktransform"><svg viewBox="0 0 395.52 87.64666367310281" height="87.64666367310281" width="395.52" id="textblock"><g><svg viewBox="0 0 395.52 87.64666367310281" height="87.64666367310281" width="395.52"><g transform="matrix(1,0,0,1,0,0)"><svg width="395.52" viewBox="4 -38.7 222.68 49.35" height="87.64666367310281" data-palette-color="#374151"><path d="M12.95-13.3L12.95-13.3 10.1-13.3 10.1-13 10.7 0 4 0 4.6-12.15 4-34.5 14.85-34.5Q19.65-34.5 22.5-31.9 25.35-29.3 25.35-25L25.35-25Q25.35-21.75 23.68-19.07 22-16.4 19.15-14.85L19.15-14.85 27.85-2.55 21.8 0.55 14-13.35Q13.65-13.3 12.95-13.3ZM13.05-29.45L13.05-29.45 10.6-29.45 10.25-18.15 13.65-18.15Q16.15-18.15 17.53-19.8 18.9-21.45 18.9-24.5L18.9-24.5Q18.9-29.45 13.05-29.45ZM36.85 0Q33.9 0 32.02-1.88 30.15-3.75 30.15-6.93 30.15-10.1 33.05-12.43 35.95-14.75 40.1-14.75L40.1-14.75 43.5-14.75 43.5-15.6Q43.5-18.05 42.5-18.95 41.5-19.85 38.75-19.85L38.75-19.85Q37.6-19.85 36.02-19.38 34.45-18.9 32.5-17.9L32.5-17.9 31.05-21.85Q33.2-23.35 36.27-24.55 39.35-25.75 41.35-25.75L41.35-25.75Q49.2-25.75 49.2-18.15L49.2-18.15 49.2-8.35Q49.2-5.55 50.95-2.1L50.95-2.1 45.65 0.15Q44.4-2.25 43.8-4.15L43.8-4.15Q41.05 0 36.85 0L36.85 0ZM38.95-5.1L38.95-5.1Q40.95-5.1 43.5-7.15L43.5-7.15 43.5-10.5Q40.85-11.1 39.2-11.1L39.2-11.1Q36.05-11.1 36.05-8.3L36.05-8.3Q36.05-6.85 36.85-5.98 37.65-5.1 38.95-5.1ZM68.65-25.25L68.65-25.25Q71.85-25.25 74.02-22.45 76.2-19.65 76.2-14.9L76.2-14.9Q76.2-8.25 72.77-4.13 69.35 0 64.25 0L64.25 0Q63.2 0 61.9-0.15L61.9-0.15 62.15 9.4 55.3 10.65 55.95-12.15 56-12.15Q55.8-18.85 54.9-24.15L54.9-24.15 60.95-25.45Q61.25-22.8 61.45-20.2L61.45-20.2Q61.55-20.45 62.47-21.58 63.4-22.7 65.2-23.98 67-25.25 68.65-25.25ZM66.7-18.75L66.7-18.75Q64.05-18.75 61.55-17.3L61.55-17.3 61.55-13 61.75-5.85Q64.45-5.4 65.85-5.4L65.85-5.4Q70.65-5.4 70.65-12.08 70.65-18.75 66.7-18.75ZM80.34-24.2L87.04-25.45 86.44-13 86.99-1.25 80.29 0 80.89-12.15 80.34-24.2ZM79.99-32.77Q79.99-34.45 81.29-35.77 82.59-37.1 84.29-37.1 85.99-37.1 86.89-36.18 87.79-35.25 87.79-33.4 87.79-31.55 86.52-30.23 85.24-28.9 83.57-28.9 81.89-28.9 80.94-30 79.99-31.1 79.99-32.77ZM105.74-4.9L105.74-4.9Q101.84 0 98.99 0L98.99 0Q95.44 0 93.17-2.9 90.89-5.8 90.89-10.35L90.89-10.35Q90.89-16.6 94.37-20.9 97.84-25.2 102.89-25.2L102.89-25.2 105.69-24.8 105.69-25.75 105.09-37.45 111.94-38.7 111.29-13 111.29-8.6Q111.29-5.6 112.79-1.7L112.79-1.7 107.39 0.55Q105.94-2.45 105.74-4.9ZM96.49-12.95Q96.49-9.75 97.67-7.95 98.84-6.15 101.07-6.15 103.29-6.15 105.69-7.95L105.69-7.95 105.69-18.75Q102.69-19.35 101.24-19.35L101.24-19.35Q98.99-19.35 97.74-17.75 96.49-16.15 96.49-12.95ZM139.09-33.85L145.19-34.6 144.54-13 145.09-1.1 139.19 0.15 124.29-23.95 124.29-13 124.99 0 118.74 0 119.34-12.15 118.74-34.35 124.74-34.65 139.59-10.2 139.09-33.85ZM161.09-5.1L161.09-5.1Q162.53-5.1 164.13-5.85 165.74-6.6 166.63-7.35L166.63-7.35 167.53-8.1 169.84-5.3Q169.34-4.45 168.28-3.35 167.24-2.25 166.16-1.48 165.09-0.7 163.31-0.08 161.53 0.55 159.63 0.55L159.63 0.55Q155.59 0.55 153.03-2.53 150.49-5.6 150.49-10.45L150.49-10.45Q150.49-16.55 154.03-21.15 157.59-25.75 162.34-25.75L162.34-25.75Q165.99-25.75 168.01-23.7 170.03-21.65 170.03-17.95L170.03-17.95Q170.03-15.75 169.28-12.95L169.28-12.95 168.28-11.9 155.78-10.75Q156.63-5.1 161.09-5.1ZM161.09-20.6L161.09-20.6Q158.88-20.6 157.38-18.82 155.88-17.05 155.63-14.3L155.63-14.3 164.13-15.35Q164.28-16.5 164.28-17.25L164.28-17.25Q164.28-20.6 161.09-20.6ZM194.93-14.4L196.68-6.25 197.33-6.25 198.93-13.1 201.53-25.45 207.63-24.7 203.98-12.3 200.93-0.6 192.73 0.15 189.98-12 189.73-12.8 186.38-0.6 178.43 0.15 175.53-12 172.08-24.15 178.63-25.4 180.68-14.4 182.48-6.25 183.13-6.25 187.43-20.5 186.38-24.15 192.83-25.4 194.93-14.4ZM218.48-4.65L218.48-4.65Q221.08-4.65 221.08-6.95L221.08-6.95Q221.08-7.75 219.96-8.45 218.83-9.15 217.21-9.85 215.58-10.55 213.96-11.43 212.33-12.3 211.21-13.85 210.08-15.4 210.08-17.4L210.08-17.4Q210.08-20.75 213.03-23.25 215.98-25.75 219.83-25.75L219.83-25.75Q221.63-25.75 223.36-25.33 225.08-24.9 226.68-24L226.68-24 223.33-17.9Q222.98-18.2 222.43-18.65 221.88-19.1 220.36-19.83 218.83-20.55 217.66-20.55 216.48-20.55 215.86-20.03 215.23-19.5 215.23-18.57 215.23-17.65 216.96-16.73 218.68-15.8 220.73-15.03 222.78-14.25 224.51-12.48 226.23-10.7 226.23-8.25L226.23-8.25Q226.23-4.75 223.36-2.1 220.48 0.55 216.73 0.55L216.73 0.55Q214.33 0.55 212.26-0.5 210.18-1.55 209.28-2.6L209.28-2.6 208.38-3.65 212.33-8.25Q212.63-7.85 213.18-7.25 213.73-6.65 215.36-5.65 216.98-4.65 218.48-4.65Z" opacity="1" transform="matrix(1,0,0,1,0,0)" fill="#ffffff" class="wordmark-text-0" data-fill-palette-color="primary" id="text-0"></path></svg></g></svg></g></svg></g></svg></g><g transform="matrix(1,0,0,1,0,0.21911665918275247)"><svg viewBox="0 0 98.43919926847589 87.64666367310281" height="87.64666367310281" width="98.43919926847589"><g><svg xmlns="http://www.w3.org/2000/svg" xmlns:xlink="http://www.w3.org/1999/xlink" version="1.1" x="0" y="0" viewBox="14.6 17.533705975217927 75.10000000000001 66.86629402478208" enable-background="new 0 0 100 100" xml:space="preserve" height="87.64666367310281" width="98.43919926847589" class="icon-icon-0" data-fill-palette-color="accent" id="icon-0"><g fill="#374151" data-fill-palette-color="accent"><g fill="#374151" data-fill-palette-color="accent"><path d="M89.7 17.7C88.8 33.7 85.2 45 69.2 58 69.2 64.8 66.5 71.6 61 76.4L51.9 66.2C50 68 47.5 68.9 45.1 69 41.9 69.1 38.8 67.9 36.5 65.4 32.5 60.9 32.9 54 37.3 50L28.2 39.8C33.7 34.9 40.7 32.9 47.5 33.7 62.1 19.2 73.7 16.8 89.7 17.7M73.1 42.3C76.1 39.6 76.3 35.1 73.7 32.1 72.2 30.5 70.2 29.6 68 29.7 66.3 29.8 64.7 30.4 63.5 31.5 60.5 34.2 60.3 38.7 62.9 41.7 64.4 43.3 66.4 44.2 68.6 44.1 70.2 44 71.8 43.4 73.1 42.3" fill="#ffffff" data-fill-palette-color="accent"></path></g></g><g fill="#374151" data-fill-palette-color="accent"><path d="M14.6 84.4L15.1 82.8C15.2 82.4 18 72.9 21.6 69.2 23.6 67.2 26 66.1 28.2 66.1 29.6 66.1 30.7 66.5 31.6 67.4 33.9 69.7 33.1 74.1 29.8 77.4 25.9 81.3 16.6 83.8 16.2 84z" fill="#ffffff" data-fill-palette-color="accent"></path></g></svg></g></svg></g></svg></g><defs></defs></svg><rect width="395.52" height="64.13181215377375" fill="none" stroke="none" visibility="hidden"></rect></g></svg></g></svg>