<?xml version="1.0" encoding="UTF-8"?>
<svg version="1.1" xmlns="http://www.w3.org/2000/svg" width="512" height="512">
<path d="M0 0 C1.35971731 -0.00467997 1.35971731 -0.00467997 2.74690366 -0.00945449 C5.7669036 -0.01739528 8.78670042 -0.01112624 11.80670166 -0.00482178 C13.97870501 -0.0075333 16.15070744 -0.01109514 18.32270813 -0.01544189 C24.20870189 -0.02454675 30.09462542 -0.02103003 35.98062038 -0.01468372 C42.14068731 -0.00961649 48.30074827 -0.01431695 54.46081543 -0.01745605 C64.80056843 -0.02109249 75.14029284 -0.0163039 85.4800415 -0.0067749 C97.44074405 0.00412052 109.40137847 0.00057486 121.36207938 -0.01042771 C131.63058931 -0.01949605 141.8990787 -0.02078844 152.16759133 -0.01555037 C158.30112847 -0.01242966 164.43463355 -0.01202437 170.56816864 -0.01862335 C176.330166 -0.02438996 182.09207522 -0.02041246 187.85406303 -0.00883484 C189.97128846 -0.00618508 192.08852128 -0.0069587 194.20574379 -0.01136017 C197.08981883 -0.01680427 199.97360923 -0.00999536 202.85766602 0 C203.70045727 -0.00446144 204.54324852 -0.00892289 205.41157889 -0.01351953 C212.69482475 0.03562997 212.69482475 0.03562997 215.67486572 2.25396729 C217.67486572 5.25396729 217.67486572 5.25396729 217.67486572 8.25396729 C223.94486572 8.25396729 230.21486572 8.25396729 236.67486572 8.25396729 C237.33486572 6.27396729 237.99486572 4.29396729 238.67486572 2.25396729 C242.9094452 -0.56211816 248.07315154 -0.02787047 252.98522949 -0.00672913 C254.39706343 -0.01246745 254.39706343 -0.01246745 255.83741927 -0.01832169 C258.9932524 -0.02864543 262.14890338 -0.02466066 265.30474854 -0.02069092 C267.56671823 -0.02503781 269.82868644 -0.03022088 272.09065247 -0.03617859 C278.23747542 -0.04958418 284.38423694 -0.05014538 290.53107166 -0.04761529 C295.66268209 -0.04654636 300.79428006 -0.05142709 305.92588782 -0.05622071 C318.72701776 -0.06795684 331.52810355 -0.0670878 344.32923409 -0.0606639 C355.4355969 -0.05549828 366.54187191 -0.06674074 377.64821735 -0.08576212 C389.06042702 -0.10515695 400.47257901 -0.11310229 411.8848083 -0.10963887 C418.28852447 -0.10782622 424.69216028 -0.11046028 431.09586334 -0.12435341 C437.12051163 -0.13693448 443.14498444 -0.1349848 449.16963005 -0.12194252 C451.37828315 -0.1195776 453.58694861 -0.12230839 455.79558754 -0.13056564 C458.81611703 -0.14104196 461.83605873 -0.13292491 464.85656738 -0.12025452 C465.72575027 -0.1276288 466.59493315 -0.13500309 467.49045491 -0.14260083 C474.72864601 -0.07894944 481.09174714 1.09258235 486.73736572 5.81646729 C489.42371483 10.58257054 489.64048721 13.92052258 488.67486572 19.25396729 C487.63360596 21.60772705 487.63360596 21.60772705 486.23345947 24.07037354 C485.41953735 25.50763794 485.41953735 25.50763794 484.58917236 26.97393799 C480.77748762 33.50499074 476.92866172 40.01255698 473.04986572 46.50396729 C471.77547009 48.64022623 470.50166805 50.77683645 469.22848511 52.91381836 C468.44347032 54.23107557 467.65769975 55.54788282 466.8710022 56.86413574 C464.42318215 60.96704816 462.03454812 65.0997001 459.67486572 69.25396729 C462.21548673 73.53688335 464.75661191 77.81949976 467.29815674 82.10186768 C468.15831328 83.55133451 469.01834427 85.00087586 469.87823486 86.45050049 C474.86098917 94.85033381 479.85393054 103.24350661 484.89872742 111.60627747 C488.49544392 117.58085102 489.23683305 121.27896109 488.67486572 128.25396729 C487.45322972 132.00031768 485.63618893 133.54074226 482.26771545 135.35503387 C474.39551735 138.70559899 465.5170358 137.80358171 457.12677002 137.76190186 C455.11250959 137.76651274 453.09825253 137.77286692 451.08400249 137.78081083 C445.55765235 137.79750131 440.03157868 137.78925892 434.50522757 137.77686596 C428.5419487 137.76781672 422.57871742 137.78178459 416.615448 137.79278564 C405.61165825 137.80954871 394.60795064 137.80809 383.60415772 137.79713977 C373.43829501 137.7870732 363.27246457 137.78445277 353.1065979 137.78923035 C352.43198545 137.78953589 351.757373 137.78984143 351.06231775 137.79015623 C348.32377045 137.7914016 345.58522315 137.79267521 342.84667588 137.79399528 C317.16273823 137.80622828 291.47885664 137.79514221 265.79492764 137.77360769 C242.98176499 137.75462559 220.16869166 137.75632412 197.35552979 137.77545166 C171.71824301 137.79687528 146.08100576 137.80536068 120.44371128 137.79300261 C117.71018538 137.79171976 114.97665947 137.79046839 112.24313354 137.78923035 C111.57008142 137.78891404 110.8970293 137.78859773 110.20358165 137.78827183 C100.04469392 137.78372404 89.885842 137.78903913 79.72695923 137.79914856 C68.17456914 137.81058747 56.62227939 137.80733744 45.06990123 137.78602558 C39.1751372 137.7755095 33.28055448 137.77140307 27.38579178 137.78462219 C21.98971971 137.79654003 16.59399705 137.78999318 11.19795668 137.76871198 C9.24586127 137.7642434 7.29373635 137.76651791 5.3416599 137.77621514 C-13.90331824 137.86448457 -13.90331824 137.86448457 -20.32513428 133.25396729 C-23.03794799 130.4589471 -23.637936 127.72418279 -24.07513428 123.94146729 C-23.72907176 115.74336551 -18.51022565 109.02134907 -14.32513428 102.25396729 C-12.89743338 99.90614706 -11.47142686 97.55737275 -10.04779053 95.20709229 C-7.76663825 91.4415832 -5.48273037 87.67801612 -3.17889404 83.92633057 C-2.81585678 83.33350281 -2.45281952 82.74067505 -2.07878113 82.12988281 C-1.08194004 80.50277785 -0.08276388 78.87710412 0.91656494 77.25152588 C1.78692383 75.76773438 1.78692383 75.76773438 2.67486572 74.25396729 C3.30876221 73.26251709 3.94265869 72.27106689 4.59576416 71.24957275 C6.02890855 68.26136383 6.02890855 68.26136383 4.62945557 65.28814697 C3.97155029 64.26108643 3.31364502 63.23402588 2.63580322 62.17584229 C2.10746384 61.32846748 2.10746384 61.32846748 1.56845093 60.463974 C0.41740609 58.62909085 -0.76570426 56.81743937 -1.95013428 55.00396729 C-2.74484591 53.74905108 -3.53715697 52.49261149 -4.3270874 51.23468018 C-5.9037226 48.73041628 -7.49196398 46.2342353 -9.09173584 43.74468994 C-12.07113087 39.10199734 -14.95221536 34.40055181 -17.82513428 29.69146729 C-18.27453369 28.96733643 -18.72393311 28.24320557 -19.18695068 27.49713135 C-22.96209282 21.37730125 -24.44323893 16.41852137 -23.32513428 9.25396729 C-21.83028597 6.2311744 -20.14569619 4.1062766 -17.32513428 2.25396729 C-11.42238819 0.47373876 -6.14039793 -0.03285295 0 0 Z " fill="#E8463A" transform="translate(23.32513427734375,186.74603271484375)"/>
<path d="M0 0 C10.15796828 9.54674383 19.51575657 19.27451818 27.7265625 30.5625 C28.18659668 31.19414063 28.64663086 31.82578125 29.12060547 32.4765625 C36.07029225 42.11064677 42.1462593 52.08228974 47.7265625 62.5625 C48.07267578 63.20026367 48.41878906 63.83802734 48.77539062 64.49511719 C56.08398392 78.00977404 56.08398392 78.00977404 55.7265625 84.5625 C54.13637577 87.33060282 53.07359369 89.07426994 50.01406759 90.18319201 C46.92561529 90.69531093 43.94549551 90.69079834 40.81398106 90.69392776 C39.76589003 90.69700672 39.76589003 90.69700672 38.69662544 90.70014787 C36.3437583 90.70582446 33.99094958 90.70435981 31.63807678 90.70294189 C29.93876959 90.70552514 28.239463 90.70853818 26.54015726 90.7119453 C21.86139627 90.72002307 17.18265062 90.7218053 12.50388348 90.72254276 C7.46154373 90.72439192 2.41921197 90.73193845 -2.62312317 90.73867798 C-13.65179483 90.75226633 -24.68046286 90.75828652 -35.70914149 90.76268864 C-42.59184201 90.76544965 -49.47454111 90.76968668 -56.35724068 90.77419281 C-75.40392309 90.78638506 -94.45060438 90.79668516 -113.49729061 90.8000679 C-115.32617692 90.80039725 -115.32617692 90.80039725 -117.19201044 90.80073325 C-119.02532375 90.80106067 -119.02532375 90.80106067 -120.89567369 90.8013947 C-123.37242504 90.80183817 -125.84917639 90.80228473 -128.32592773 90.80273438 C-129.55448746 90.8029558 -130.78304719 90.80317723 -132.048836 90.80340537 C-151.96858877 90.8073558 -171.888305 90.82481749 -191.80804365 90.8480939 C-212.24673018 90.87178452 -232.68539835 90.88426867 -253.12409884 90.88543582 C-264.60486214 90.88635376 -276.08557783 90.89213604 -287.56632805 90.91025543 C-297.33954868 90.92562539 -307.11270697 90.93079521 -316.88593739 90.92251733 C-321.87486305 90.91860008 -326.86366305 90.91959271 -331.85257339 90.93357468 C-336.41650894 90.94624904 -340.98022357 90.94517336 -345.54415853 90.93298396 C-347.19822405 90.93101572 -348.85230488 90.93415699 -350.50634884 90.94282833 C-352.74950839 90.9538468 -354.99187803 90.94648615 -357.23501492 90.9344368 C-359.10625189 90.93533243 -359.10625189 90.93533243 -361.01529163 90.93624616 C-364.5589369 90.52974999 -366.42903481 89.66996708 -369.2734375 87.5625 C-371.100797 85.15370794 -371.3097786 83.99275265 -371.0546875 80.97265625 C-370.05330403 76.60161742 -368.33853197 72.84091067 -366.3984375 68.8125 C-365.80059448 67.56666138 -365.80059448 67.56666138 -365.19067383 66.2956543 C-350.58422833 36.49354364 -328.57861233 8.86885383 -302.2734375 -11.4375 C-301.70318848 -11.88947754 -301.13293945 -12.34145508 -300.54541016 -12.80712891 C-269.45546463 -37.43404952 -232.2797433 -52.87827408 -193.2734375 -59.4375 C-192.54060547 -59.56737305 -191.80777344 -59.69724609 -191.05273438 -59.83105469 C-122.43013095 -71.53032375 -50.5881209 -46.25199625 0 0 Z " fill="#000101" transform="translate(408.2734375,86.4375)"/>
<path d="M0 0 C0.70969172 -0.00495952 1.41938344 -0.00991903 2.15058097 -0.01502883 C4.54691887 -0.02806129 6.94270651 -0.01957642 9.33905888 -0.01129913 C11.06709267 -0.01618443 12.7951232 -0.02237255 14.52314812 -0.02975702 C19.28595576 -0.04622552 24.04859862 -0.04382464 28.81142485 -0.03838205 C33.9423968 -0.03572034 39.07332397 -0.05022742 44.20427799 -0.06247711 C54.26174609 -0.08356952 64.31915659 -0.08806979 74.37664419 -0.08628923 C82.54826659 -0.08498355 90.71987097 -0.08877577 98.89148998 -0.09621429 C101.24190793 -0.0983134 103.59232588 -0.100411 105.94274384 -0.10250711 C107.69733516 -0.10407241 107.69733516 -0.10407241 109.48737276 -0.10566932 C131.62822817 -0.12458695 153.76905048 -0.12351678 175.90991063 -0.11669999 C196.18286329 -0.11112297 216.45568964 -0.13195408 236.72861277 -0.16506046 C257.52548619 -0.19875992 278.32229904 -0.2139705 299.11920029 -0.20934343 C310.80285865 -0.207095 322.48640026 -0.21239638 334.17003536 -0.23723602 C344.11609076 -0.2582008 354.06196538 -0.26188919 364.00802808 -0.24293643 C369.08600875 -0.23374888 374.16365191 -0.23272753 379.24160671 -0.25329208 C383.88585457 -0.27189279 388.52948594 -0.2676222 393.17370952 -0.24474627 C394.85806832 -0.24053275 396.5424734 -0.244852 398.22678345 -0.25834221 C400.50889852 -0.27538244 402.7888315 -0.26190636 405.07086182 -0.24050903 C406.34053926 -0.24078142 407.61021671 -0.2410538 408.91836923 -0.24133444 C412.09835148 0.38311005 412.09835148 0.38311005 414.5358606 2.68966436 C416.32769474 5.77845546 416.3887693 7.69879834 415.73458195 11.18779755 C414.53388484 15.33080153 412.64999788 19.06877836 410.66085148 22.88311005 C410.21274113 23.75677216 409.76463078 24.63043427 409.30294132 25.53057098 C395.66239632 51.72385257 372.4646567 88.69995744 345.09835148 102.38311005 C341.42505183 102.51668458 338.59982189 102.55026685 335.09835148 101.38311005 C332.55051279 102.61698769 330.28955558 103.88001718 327.91085148 105.38311005 C327.25665226 105.75822723 326.60245304 106.13334442 325.9284296 106.5198288 C323.76409743 107.80178327 323.76409743 107.80178327 321.09835148 110.38311005 C321.02287017 112.71522218 321.02287017 115.05099791 321.09835148 117.38311005 C312.43638201 128.57081266 293.93378725 133.59464969 281.09835148 138.38311005 C280.43867374 138.63189911 279.77899601 138.88068817 279.09932804 139.1370163 C223.00063812 160.01372174 158.93351099 154.72158755 104.91085148 130.57061005 C81.01565196 119.59438531 60.13007501 104.46442075 41.09835148 86.38311005 C40.56274601 85.87618622 40.02714054 85.36926239 39.4753046 84.84697723 C22.09966544 68.28743528 8.19079705 48.63327248 -2.90164852 27.38311005 C-3.29078426 26.64286591 -3.67992001 25.90262177 -4.08084774 25.13994598 C-5.254784 22.87863985 -6.39611469 20.60388418 -7.52664852 18.32061005 C-7.88202694 17.63039764 -8.23740536 16.94018524 -8.60355282 16.22905731 C-10.82051495 11.60668283 -11.34189146 8.49910343 -9.90164852 3.38311005 C-7.33762506 -0.4362991 -4.33936377 0.00537057 0 0 Z " fill="#000101" transform="translate(47.90164852142334,335.6168899536133)"/>
<path d="M0 0 C1.35971731 -0.00467997 1.35971731 -0.00467997 2.74690366 -0.00945449 C5.7669036 -0.01739528 8.78670042 -0.01112624 11.80670166 -0.00482178 C13.97870501 -0.0075333 16.15070744 -0.01109514 18.32270813 -0.01544189 C24.20870189 -0.02454675 30.09462542 -0.02103003 35.98062038 -0.01468372 C42.14068731 -0.00961649 48.30074827 -0.01431695 54.46081543 -0.01745605 C64.80056843 -0.02109249 75.14029284 -0.0163039 85.4800415 -0.0067749 C97.44074405 0.00412052 109.40137847 0.00057486 121.36207938 -0.01042771 C131.63058931 -0.01949605 141.8990787 -0.02078844 152.16759133 -0.01555037 C158.30112847 -0.01242966 164.43463355 -0.01202437 170.56816864 -0.01862335 C176.330166 -0.02438996 182.09207522 -0.02041246 187.85406303 -0.00883484 C189.97128846 -0.00618508 192.08852128 -0.0069587 194.20574379 -0.01136017 C197.08981883 -0.01680427 199.97360923 -0.00999536 202.85766602 0 C203.70045727 -0.00446144 204.54324852 -0.00892289 205.41157889 -0.01351953 C212.69482475 0.03562997 212.69482475 0.03562997 215.67486572 2.25396729 C217.67486572 5.25396729 217.67486572 5.25396729 217.48736572 8.75396729 C216.41954657 13.35380362 216.41954657 13.35380362 213.67486572 15.25396729 C209.7921621 16.54820183 206.12191721 16.38832582 202.07594299 16.3742218 C201.18724886 16.37507623 200.29855472 16.37593065 199.38293046 16.37681097 C196.39338928 16.37846323 193.40390372 16.3729485 190.41436768 16.36749268 C188.27602134 16.36721072 186.1376749 16.3673687 183.99932861 16.36793518 C178.1835676 16.36822284 172.36782709 16.36233115 166.55207086 16.35536122 C160.47819131 16.34912249 154.40431133 16.34852347 148.33042908 16.34733582 C136.82387666 16.34422404 125.31733371 16.3360127 113.81078547 16.32598633 C100.71302198 16.31482044 87.61525805 16.30931354 74.51749098 16.30429089 C47.56994397 16.29382998 20.62240538 16.27623349 -6.32513428 16.25396729 C-4.03538035 20.17689585 -1.74353505 24.09859279 0.5500946 28.01925659 C1.32690872 29.34775266 2.10319167 30.67655949 2.87889099 32.00570679 C8.2078638 41.13573346 13.63199513 50.19117733 19.31690979 59.10591125 C22.16367799 63.61798156 23.52352901 66.77565579 22.67486572 72.25396729 C21.63362877 74.68352018 20.59897315 76.70868494 19.23736572 78.94146729 C18.85628662 79.59284668 18.47520752 80.24422607 18.08258057 80.91534424 C16.63315252 83.37387123 15.15507566 85.81384271 13.67486572 88.25396729 C12.99955811 89.3741626 12.32425049 90.49435791 11.628479 91.64849854 C7.25444365 98.90394159 2.85380381 106.14279941 -1.5668335 113.36993408 C-3.164696 115.9908102 -4.74586224 118.62184722 -6.32513428 121.25396729 C151.41486572 121.25396729 309.15486572 121.25396729 471.67486572 121.25396729 C457.71094587 97.7324321 457.71094587 97.7324321 443.67486572 74.25396729 C442.13208174 71.16839931 442.43168512 68.66800185 442.67486572 65.25396729 C444.04498291 62.11456299 444.04498291 62.11456299 445.97174072 58.92974854 C446.3206134 58.34340134 446.66948608 57.75705414 447.02893066 57.15293884 C448.14675394 55.28183283 449.28508305 53.42425962 450.42486572 51.56646729 C451.14372143 50.37134939 451.86117888 49.1753893 452.57720947 47.97857666 C454.03391936 45.54908039 455.49989073 43.12553827 456.97338867 40.70619202 C459.99594909 35.73315488 462.98850035 30.74223949 465.98052979 25.75079346 C466.53080841 24.83321007 467.08108704 23.91562668 467.64804077 22.97023773 C468.9905199 20.73160322 470.33279082 18.49284415 471.67486572 16.25396729 C469.91920272 16.25811535 469.91920272 16.25811535 468.12807178 16.26234722 C440.3496108 16.32730847 412.57115574 16.37678267 384.79263474 16.40716327 C381.37422788 16.41091543 377.95582118 16.4147984 374.53741455 16.41876221 C373.51659163 16.4199426 373.51659163 16.4199426 372.47514602 16.42114685 C361.45307133 16.43420388 350.43104354 16.45785935 339.40899668 16.48542567 C328.1009428 16.51347162 316.79291237 16.52991724 305.48482198 16.53623277 C299.1325633 16.54014906 292.78041104 16.54937483 286.42818642 16.57115746 C280.4520623 16.5914848 274.47608865 16.59780864 268.49993324 16.59329033 C266.30410953 16.59411721 264.1082809 16.60010506 261.91248703 16.61158371 C258.91877189 16.62646889 255.92562787 16.62293522 252.93190002 16.61473083 C252.05932802 16.62346936 251.18675602 16.63220788 250.28774244 16.64121121 C245.62957891 16.60661168 242.39498756 16.3840885 238.67486572 13.25396729 C237.25864322 9.86734826 236.35708609 7.56039466 237.23736572 3.94146729 C239.52782166 1.25267118 242.13653376 0.39774246 245.64118433 0.07019174 C248.09128993 -0.00743804 250.5338958 -0.01727954 252.98522949 -0.00672913 C254.39706343 -0.01246745 254.39706343 -0.01246745 255.83741927 -0.01832169 C258.9932524 -0.02864543 262.14890338 -0.02466066 265.30474854 -0.02069092 C267.56671823 -0.02503781 269.82868644 -0.03022088 272.09065247 -0.03617859 C278.23747542 -0.04958418 284.38423694 -0.05014538 290.53107166 -0.04761529 C295.66268209 -0.04654636 300.79428006 -0.05142709 305.92588782 -0.05622071 C318.72701776 -0.06795684 331.52810355 -0.0670878 344.32923409 -0.0606639 C355.4355969 -0.05549828 366.54187191 -0.06674074 377.64821735 -0.08576212 C389.06042702 -0.10515695 400.47257901 -0.11310229 411.8848083 -0.10963887 C418.28852447 -0.10782622 424.69216028 -0.11046028 431.09586334 -0.12435341 C437.12051163 -0.13693448 443.14498444 -0.1349848 449.16963005 -0.12194252 C451.37828315 -0.1195776 453.58694861 -0.12230839 455.79558754 -0.13056564 C458.81611703 -0.14104196 461.83605873 -0.13292491 464.85656738 -0.12025452 C465.72575027 -0.1276288 466.59493315 -0.13500309 467.49045491 -0.14260083 C474.72864601 -0.07894944 481.09174714 1.09258235 486.73736572 5.81646729 C489.42371483 10.58257054 489.64048721 13.92052258 488.67486572 19.25396729 C487.63360596 21.60772705 487.63360596 21.60772705 486.23345947 24.07037354 C485.41953735 25.50763794 485.41953735 25.50763794 484.58917236 26.97393799 C480.77748762 33.50499074 476.92866172 40.01255698 473.04986572 46.50396729 C471.77547009 48.64022623 470.50166805 50.77683645 469.22848511 52.91381836 C468.44347032 54.23107557 467.65769975 55.54788282 466.8710022 56.86413574 C464.42318215 60.96704816 462.03454812 65.0997001 459.67486572 69.25396729 C462.21548673 73.53688335 464.75661191 77.81949976 467.29815674 82.10186768 C468.15831328 83.55133451 469.01834427 85.00087586 469.87823486 86.45050049 C474.86098917 94.85033381 479.85393054 103.24350661 484.89872742 111.60627747 C488.49544392 117.58085102 489.23683305 121.27896109 488.67486572 128.25396729 C487.45322972 132.00031768 485.63618893 133.54074226 482.26771545 135.35503387 C474.39551735 138.70559899 465.5170358 137.80358171 457.12677002 137.76190186 C455.11250959 137.76651274 453.09825253 137.77286692 451.08400249 137.78081083 C445.55765235 137.79750131 440.03157868 137.78925892 434.50522757 137.77686596 C428.5419487 137.76781672 422.57871742 137.78178459 416.615448 137.79278564 C405.61165825 137.80954871 394.60795064 137.80809 383.60415772 137.79713977 C373.43829501 137.7870732 363.27246457 137.78445277 353.1065979 137.78923035 C352.43198545 137.78953589 351.757373 137.78984143 351.06231775 137.79015623 C348.32377045 137.7914016 345.58522315 137.79267521 342.84667588 137.79399528 C317.16273823 137.80622828 291.47885664 137.79514221 265.79492764 137.77360769 C242.98176499 137.75462559 220.16869166 137.75632412 197.35552979 137.77545166 C171.71824301 137.79687528 146.08100576 137.80536068 120.44371128 137.79300261 C117.71018538 137.79171976 114.97665947 137.79046839 112.24313354 137.78923035 C111.57008142 137.78891404 110.8970293 137.78859773 110.20358165 137.78827183 C100.04469392 137.78372404 89.885842 137.78903913 79.72695923 137.79914856 C68.17456914 137.81058747 56.62227939 137.80733744 45.06990123 137.78602558 C39.1751372 137.7755095 33.28055448 137.77140307 27.38579178 137.78462219 C21.98971971 137.79654003 16.59399705 137.78999318 11.19795668 137.76871198 C9.24586127 137.7642434 7.29373635 137.76651791 5.3416599 137.77621514 C-13.90331824 137.86448457 -13.90331824 137.86448457 -20.32513428 133.25396729 C-23.03794799 130.4589471 -23.637936 127.72418279 -24.07513428 123.94146729 C-23.72907176 115.74336551 -18.51022565 109.02134907 -14.32513428 102.25396729 C-12.89743338 99.90614706 -11.47142686 97.55737275 -10.04779053 95.20709229 C-7.76663825 91.4415832 -5.48273037 87.67801612 -3.17889404 83.92633057 C-2.81585678 83.33350281 -2.45281952 82.74067505 -2.07878113 82.12988281 C-1.08194004 80.50277785 -0.08276388 78.87710412 0.91656494 77.25152588 C1.78692383 75.76773438 1.78692383 75.76773438 2.67486572 74.25396729 C3.30876221 73.26251709 3.94265869 72.27106689 4.59576416 71.24957275 C6.02890855 68.26136383 6.02890855 68.26136383 4.62945557 65.28814697 C3.97155029 64.26108643 3.31364502 63.23402588 2.63580322 62.17584229 C2.10746384 61.32846748 2.10746384 61.32846748 1.56845093 60.463974 C0.41740609 58.62909085 -0.76570426 56.81743937 -1.95013428 55.00396729 C-2.74484591 53.74905108 -3.53715697 52.49261149 -4.3270874 51.23468018 C-5.9037226 48.73041628 -7.49196398 46.2342353 -9.09173584 43.74468994 C-12.07113087 39.10199734 -14.95221536 34.40055181 -17.82513428 29.69146729 C-18.27453369 28.96733643 -18.72393311 28.24320557 -19.18695068 27.49713135 C-22.96209282 21.37730125 -24.44323893 16.41852137 -23.32513428 9.25396729 C-21.83028597 6.2311744 -20.14569619 4.1062766 -17.32513428 2.25396729 C-11.42238819 0.47373876 -6.14039793 -0.03285295 0 0 Z " fill="#040101" transform="translate(23.32513427734375,186.74603271484375)"/>
<path d="M0 0 C0 31.35 0 62.7 0 95 C-9.90625276 95 -19.63729189 94.89025957 -29.5 94.25 C-30.81427979 94.16492188 -32.12855957 94.07984375 -33.48266602 93.9921875 C-43.34228801 93.31624537 -53.13730409 92.2669208 -62.9375 91 C-64.22785156 90.8340332 -65.51820313 90.66806641 -66.84765625 90.49707031 C-73.02121789 89.6631152 -78.99950089 88.68224255 -85 87 C-84.0344672 81.19058121 -81.53714452 76.33381583 -79 71.0625 C-78.5037915 70.03141113 -78.00758301 69.00032227 -77.49633789 67.93798828 C-73.53308923 59.83876165 -69.24066629 52.34061693 -64 45 C-63.25621094 43.94167969 -62.51242188 42.88335937 -61.74609375 41.79296875 C-47.91017549 22.66378547 -25.39997729 0 0 0 Z " fill="#4993CA" transform="translate(243,41)"/>
<path d="M0 0 C0 31.35 0 62.7 0 95 C-25.23215284 92.19642746 -43.35587351 75.98220443 -59 57 C-85 22.31259968 -85 22.31259968 -85 8 C-71.25967766 1.12983883 -48.88106846 2.36113064 -33.625 1.25 C-32.75358368 1.18524475 -31.88216736 1.1204895 -30.98434448 1.05377197 C-28.44052495 0.86730208 -25.89626636 0.68957645 -23.3515625 0.515625 C-22.61576462 0.46270294 -21.87996674 0.40978088 -21.12187195 0.35525513 C-14.04402121 -0.10315603 -7.14639701 0 0 0 Z " fill="#4993CA" transform="translate(243,376)"/>
<path d="M0 0 C33.81530621 1.16604504 33.81530621 1.16604504 46.625 2.375 C47.32795197 2.43903015 48.03090393 2.5030603 48.75515747 2.56903076 C76.2259962 5.07533207 76.2259962 5.07533207 85 8 C81.51181416 28.40128267 65.89944704 48.38066955 53 64 C52.38511719 64.76957031 51.77023437 65.53914063 51.13671875 66.33203125 C39.8748457 79.95916642 21.85932872 92.63054451 4 95 C2.68 95 1.36 95 0 95 C0 63.65 0 32.3 0 0 Z " fill="#4993CB" transform="translate(258,376)"/>
<path d="M0 0 C18.04722572 2.25590322 32.09723059 10.41431188 45 23 C46.2684375 24.2065625 46.2684375 24.2065625 47.5625 25.4375 C48.366875 26.283125 49.17125 27.12875 50 28 C50.64195312 28.65871094 51.28390625 29.31742188 51.9453125 29.99609375 C64.51440662 43.33159604 73.6522085 59.73470457 81.5 76.1875 C81.85078613 76.91888184 82.20157227 77.65026367 82.56298828 78.40380859 C85 83.63054124 85 83.63054124 85 87 C74.94628744 89.02609169 64.81366338 90.54376936 54.64474487 91.86022949 C52.74542916 92.10921281 50.84831752 92.37484782 48.95141602 92.64160156 C32.59490089 94.69522455 16.67192138 94.52365939 0 95 C0 63.65 0 32.3 0 0 Z " fill="#4993CA" transform="translate(258,41)"/>
<path d="M0 0 C17.84296907 2.18153089 34.97569864 7.3958465 52 13 C50.39237692 17.00478887 47.58621594 19.71705702 44.5625 22.6875 C44.03551514 23.21061768 43.50853027 23.73373535 42.96557617 24.27270508 C37.9208887 29.20908258 32.53802239 33.62568963 27 38 C26.67 38.33 26.34 38.66 26 39 C26.11859375 39.6496875 26.2371875 40.299375 26.359375 40.96875 C26.83381142 44.04309803 26.87742091 45.99230235 26 49 C21.67531875 53.13424785 15.17490562 58.54917724 9 59 C8.01 58.34 7.02 57.68 6 57 C0.23735688 56.36982032 -3.62123322 57.90218612 -8.5625 60.625 C-9.96702173 61.36397126 -11.37331038 62.09959296 -12.78125 62.83203125 C-13.48378906 63.19893066 -14.18632812 63.56583008 -14.91015625 63.94384766 C-20.14073766 66.58724662 -25.5919209 68.75050452 -31 71 C-32.155 71.515625 -33.31 72.03125 -34.5 72.5625 C-37.80564552 73.92017584 -40.96460326 74.86805245 -44.4375 75.6875 C-45.48808594 75.93886719 -46.53867187 76.19023437 -47.62109375 76.44921875 C-48.40613281 76.63097656 -49.19117188 76.81273437 -50 77 C-49.29101562 76.29617188 -48.58203125 75.59234375 -47.8515625 74.8671875 C-26.80617775 53.79222385 -9.49110931 28.47332794 0 0 Z " fill="#4992C9" transform="translate(358,387)"/>
<path d="M0 0 C-1.010625 0.825 -2.02125 1.65 -3.0625 2.5 C-7.14176333 6.01744862 -10.58083203 9.84624516 -14 14 C-15.2375 15.48113281 -15.2375 15.48113281 -16.5 16.9921875 C-31.03338122 34.71121876 -41.30058069 54.91049864 -50 76 C-67.743926 74.02466851 -85.08799858 68.54733283 -102 63 C-97.98744996 53.27466686 -86.01529922 45.28285424 -78 39 C-77.02675781 38.20980469 -76.05351563 37.41960937 -75.05078125 36.60546875 C-54.41723502 20.16594321 -30.79914497 8.93925197 -6.02734375 0.20703125 C-5.301521 -0.04973389 -4.57569824 -0.30649902 -3.82788086 -0.57104492 C-2 -1 -2 -1 0 0 Z " fill="#4992C9" transform="translate(193,49)"/>
<path d="M0 0 C0.27038086 0.65258789 0.54076172 1.30517578 0.81933594 1.97753906 C12.45898766 29.83269889 27.167471 54.87174613 49 76 C43.34426799 75.4074233 38.43528293 73.94055427 33.125 71.9375 C31.87988647 71.47005371 31.87988647 71.47005371 30.60961914 70.99316406 C11.26629113 63.59659043 -6.59623747 53.68522472 -23 41 C-23.80179688 40.39027344 -24.60359375 39.78054688 -25.4296875 39.15234375 C-32.66353084 33.52473719 -39.37746494 27.32681179 -46 21 C-46.85368164 20.19224121 -46.85368164 20.19224121 -47.72460938 19.36816406 C-49.18954984 17.95216944 -50.59970401 16.47995355 -52 15 C-52 14.34 -52 13.68 -52 13 C-39.69123398 9.03388137 -27.35764576 5.45834904 -14.75 2.5625 C-13.62609863 2.30388184 -12.50219727 2.04526367 -11.34423828 1.77880859 C-3.42311461 0 -3.42311461 0 0 0 Z " fill="#4992C9" transform="translate(143,387)"/>
<path d="M0 0 C37.08975183 10.3887757 68.96361725 29.31495921 96.38232422 56.40332031 C97.72844802 57.73197254 99.09776966 59.0370715 100.47265625 60.3359375 C102 62 102 62 102 64 C66.26012067 74.95922538 66.26012067 74.95922538 51 77 C50.16666667 75.33333333 49.33333333 73.66666667 48.5 72 C47.9534375 70.90816406 47.406875 69.81632812 46.84375 68.69140625 C45.56741228 66.13942148 44.29761789 63.58428951 43.03125 61.02734375 C41.03895188 57.00900427 39.02417079 53.00236201 37 49 C36.27876953 47.56333984 36.27876953 47.56333984 35.54296875 46.09765625 C29.30238754 34.13804097 21.50806288 23.07845128 12.19140625 13.33203125 C10 11 10 11 7.91796875 8.37109375 C6.28479523 6.35207883 4.78458152 4.8324523 2.75 3.25 C1.8425 2.5075 0.935 1.765 0 1 C0 0.67 0 0.34 0 0 Z " fill="#4992C9" transform="translate(308,48)"/>
<path d="M0 0 C2.4508052 3.29943118 3.63174291 6.59298469 4.68359375 10.53515625 C4.97169922 11.59283203 5.25980469 12.65050781 5.55664062 13.74023438 C5.84732422 14.83658203 6.13800781 15.93292969 6.4375 17.0625 C8.46576406 24.62405072 10.61873574 32.06235757 13.25024414 39.43920898 C14 42 14 42 14 46 C14.66 46 15.32 46 16 46 C16.04463379 45.39994141 16.08926758 44.79988281 16.13525391 44.18164062 C16.68311694 37.78537059 17.81051853 31.7206763 19.375 25.5 C19.58382813 24.60796875 19.79265625 23.7159375 20.0078125 22.796875 C20.21921875 21.94609375 20.430625 21.0953125 20.6484375 20.21875 C20.83583496 19.45498047 21.02323242 18.69121094 21.21630859 17.90429688 C22 16 22 16 25 14 C27.19140625 13.91796875 27.19140625 13.91796875 29.5625 14.1875 C30.74005859 14.30158203 30.74005859 14.30158203 31.94140625 14.41796875 C34 15 34 15 36 18 C36.46908237 19.72370269 36.86747516 21.46723773 37.21875 23.21875 C37.42886719 24.23324219 37.63898438 25.24773437 37.85546875 26.29296875 C38.28515625 28.43098958 38.71484375 30.56901042 39.14453125 32.70703125 C39.35464844 33.72152344 39.56476563 34.73601562 39.78125 35.78125 C39.96751953 36.71001953 40.15378906 37.63878906 40.34570312 38.59570312 C40.92743394 41.23429618 40.92743394 41.23429618 43 44 C43.21914063 43.14921875 43.43828125 42.2984375 43.6640625 41.421875 C45.66858336 33.76232375 47.79877946 26.14971075 50.0625 18.5625 C50.30758301 17.73524414 50.55266602 16.90798828 50.80517578 16.05566406 C55.04746515 1.95253485 55.04746515 1.95253485 57 0 C62.01879978 -0.38606152 64.90712202 0.02336147 69 3 C67.58847425 9.80075023 65.75620338 16.36371445 63.6640625 22.984375 C63.34343842 24.00299622 63.02281433 25.02161743 62.69247437 26.07110596 C62.01720609 28.20971181 61.33973231 30.3476224 60.66015625 32.48486328 C59.62469512 35.75096168 58.60520806 39.02178714 57.5859375 42.29296875 C56.92545722 44.37791425 56.26403139 46.4625605 55.6015625 48.546875 C55.14978134 50.00791656 55.14978134 50.00791656 54.68887329 51.49847412 C53.12512451 56.35425501 51.74705681 60.35456777 48 64 C44.39427296 65.20190901 41.7897565 65.32670315 38 65 C35.24108268 63.42466655 33.43886021 62.10479027 32.24267578 59.09350586 C31.65006937 56.84297022 31.17736749 54.60006082 30.75 52.3125 C30.14175665 47.25035462 30.14175665 47.25035462 28 43 C27.61908203 44.89685547 27.61908203 44.89685547 27.23046875 46.83203125 C26.88340454 48.49231137 26.53571566 50.15246099 26.1875 51.8125 C26.02185547 52.64587891 25.85621094 53.47925781 25.68554688 54.33789062 C25.51474609 55.14033203 25.34394531 55.94277344 25.16796875 56.76953125 C25.01610107 57.50792236 24.8642334 58.24631348 24.70776367 59.00708008 C23.87080796 61.36377875 22.94004066 62.44016389 21 64 C17.39427296 65.20190901 14.7897565 65.32670315 11 65 C5.831517 61.91918268 4.5576588 58.23978718 2.80859375 52.7890625 C2.40061302 51.58218277 2.40061302 51.58218277 1.98439026 50.35092163 C1.12005138 47.78045998 0.27890269 45.20304817 -0.5625 42.625 C-1.13073266 40.93050978 -1.70038156 39.23649379 -2.27148438 37.54296875 C-10.9021238 11.78835256 -10.9021238 11.78835256 -12 4 C-8.77792589 -0.29609881 -5.16437059 -0.54361796 0 0 Z " fill="#050101" transform="translate(248,224)"/>
<path d="M0 0 C0.85207031 -0.03996094 1.70414063 -0.07992187 2.58203125 -0.12109375 C6.31273295 0.67874185 7.66597353 2.61479521 10.1875 5.4375 C12.0402832 8.48364258 12.0402832 8.48364258 13.73828125 11.83203125 C14.04195114 12.42424973 14.34562103 13.0164682 14.65849304 13.62663269 C15.61476849 15.49661417 16.55753355 17.37302753 17.5 19.25 C18.15080698 20.52844607 18.8024918 21.80644566 19.45507812 23.08398438 C21.04272566 26.19673022 22.61834102 29.31538514 24.1875 32.4375 C24.20731934 31.53918457 24.22713867 30.64086914 24.24755859 29.71533203 C24.32559261 26.38659922 24.41228114 23.05832744 24.50488281 19.72998047 C24.54319674 18.2886626 24.57804543 16.84724832 24.609375 15.40576172 C24.65497446 13.33526114 24.71297444 11.26542567 24.7734375 9.1953125 C24.8048584 7.9489502 24.8362793 6.70258789 24.86865234 5.41845703 C25.1875 2.4375 25.1875 2.4375 27.1875 0.4375 C29.28125 0.171875 29.28125 0.171875 31.6875 0.1875 C32.4815625 0.18234375 33.275625 0.1771875 34.09375 0.171875 C36.1875 0.4375 36.1875 0.4375 38.1875 2.4375 C38.44819641 4.94238281 38.44819641 4.94238281 38.4621582 8.140625 C38.47645622 9.93258301 38.47645622 9.93258301 38.49104309 11.76074219 C38.49013168 13.05657227 38.48922028 14.35240234 38.48828125 15.6875 C38.4921667 17.02506646 38.49650105 18.36263169 38.50126648 19.70019531 C38.50873289 22.50459797 38.50843418 25.30887474 38.50317383 28.11328125 C38.49737461 31.71164579 38.51431833 35.30949637 38.5375185 38.90777588 C38.55223072 41.67011541 38.55313109 44.43233038 38.55000877 47.19470215 C38.55077366 49.16791038 38.56466591 51.14109927 38.57868958 53.11425781 C38.57246078 54.30889648 38.56623199 55.50353516 38.55981445 56.734375 C38.56044388 57.78979492 38.5610733 58.84521484 38.5617218 59.93261719 C38.43822861 60.75922852 38.31473541 61.58583984 38.1875 62.4375 C34.97313471 64.58041019 33.01323391 64.73775791 29.22265625 64.8984375 C26.26696893 64.2290112 25.19001486 62.69191089 23.1875 60.4375 C21.98226961 58.4619056 20.84780661 56.44218253 19.76953125 54.39453125 C19.15529297 53.23888672 18.54105469 52.08324219 17.90820312 50.89257812 C17.2718048 49.67855867 16.63574091 48.46436385 16 47.25 C14.73844369 44.85920079 13.47282294 42.47059487 12.20703125 40.08203125 C11.65120361 39.02346924 11.09537598 37.96490723 10.52270508 36.87426758 C9.40169851 34.55825543 9.40169851 34.55825543 8.1875 33.4375 C8.16244385 34.27522949 8.1373877 35.11295898 8.11157227 35.97607422 C8.01649643 39.08102256 7.91725975 42.18580181 7.81518555 45.29052734 C7.75051749 47.29644807 7.69066894 49.30252228 7.63085938 51.30859375 C7.58896484 52.56542969 7.54707031 53.82226562 7.50390625 55.1171875 C7.44891968 56.86104736 7.44891968 56.86104736 7.39282227 58.64013672 C7.1875 61.4375 7.1875 61.4375 6.1875 63.4375 C2.63396071 64.6220131 -0.08263478 64.70391894 -3.8125 64.4375 C-5.50798035 63.27967834 -5.50798035 63.27967834 -6.8125 61.4375 C-7.1867218 58.85032654 -7.1867218 58.85032654 -7.18481445 55.71264648 C-7.19104324 54.5381041 -7.19727203 53.36356171 -7.20368958 52.15342712 C-7.19447983 50.88463211 -7.18527008 49.6158371 -7.17578125 48.30859375 C-7.17627975 47.00801529 -7.17677826 45.70743683 -7.17729187 44.3674469 C-7.1772022 41.61602167 -7.16678214 38.86488977 -7.14868164 36.11352539 C-7.12597195 32.58364552 -7.12545479 29.05419337 -7.13219929 25.52426052 C-7.13633979 22.16065588 -7.12437171 18.79718362 -7.11328125 15.43359375 C-7.11419266 14.16277451 -7.11510406 12.89195526 -7.11604309 11.58262634 C-7.10651108 10.41123611 -7.09697906 9.23984589 -7.0871582 8.03295898 C-7.08255081 6.99832016 -7.07794342 5.96368134 -7.07319641 4.89768982 C-6.58369671 0.2782853 -4.08444984 0.10410142 0 0 Z " fill="#020000" transform="translate(141.8125,223.5625)"/>
<path d="M0 0 C24.42 0 48.84 0 74 0 C64.76644737 18.46710526 64.76644737 18.46710526 60.8125 24.125 C60.41353516 24.71796875 60.01457031 25.3109375 59.60351562 25.921875 C56.95000131 29.81426757 54.0621624 33.42113168 51 37 C43.33903233 35.67502674 36.081429 33.56368382 28.6875 31.1875 C17.2313204 27.57443517 5.72630579 24.58924799 -6 22 C-4.70474735 14.2966553 -2.50718436 7.52155308 0 0 Z " fill="#4992CA" transform="translate(370,351)"/>
<path d="M0 0 C24.42 0 48.84 0 74 0 C79 15 79 15 80 22 C79.00895264 22.24121582 78.01790527 22.48243164 76.99682617 22.73095703 C72.39174334 23.85432363 67.78932563 24.98837281 63.1875 26.125 C62.36443359 26.32775543 61.54136719 26.53051086 60.69335938 26.7394104 C50.42598931 29.27643225 40.22832326 31.86157926 30.28198242 35.49853516 C25.61046319 37.13456447 25.61046319 37.13456447 22.8203125 36.51953125 C20.20671933 34.33779789 18.30558401 31.77365061 16.375 29 C15.73510132 28.09350708 15.73510132 28.09350708 15.08227539 27.16870117 C9.37124479 18.8844198 3.19599355 9.58798064 0 0 Z " fill="#4992CA" transform="translate(57,351)"/>
<path d="M0 0 C1.93954787 0.40702753 3.87652709 0.82629464 5.8125 1.25 C6.89144531 1.48203125 7.97039062 1.7140625 9.08203125 1.953125 C12.21594675 2.71621595 15.17380318 3.77771072 18.19140625 4.9140625 C24.07491884 7.10093498 30.02796514 8.65705148 36.125 10.125 C37.14464844 10.37636719 38.16429687 10.62773437 39.21484375 10.88671875 C45.12695826 12.33628726 51.05290478 13.70177755 57 15 C55.8769651 20.18323799 54.69479603 25.34755156 53.4375 30.5 C53.18871094 31.5209375 52.93992187 32.541875 52.68359375 33.59375 C52 36 52 36 51 37 C48.69946165 37.09443335 46.39597827 37.11742128 44.09350586 37.11352539 C43.37159561 37.11367142 42.64968536 37.11381744 41.90589905 37.1139679 C39.50885053 37.11326869 37.11187877 37.10547595 34.71484375 37.09765625 C33.05717511 37.0957921 31.39950593 37.09436818 29.74183655 37.09336853 C25.37045786 37.08954312 20.99911219 37.07971265 16.62774658 37.06866455 C12.17045539 37.05845092 7.71315889 37.05387101 3.25585938 37.04882812 C-5.49610893 37.0380904 -14.24805036 37.02101371 -23 37 C-21.72723325 34.42864739 -20.45170631 31.85872739 -19.17456055 29.28955078 C-18.81640007 28.56524368 -18.45823959 27.84093658 -18.08922577 27.09468079 C-15.62089837 22.13648319 -12.9884632 17.41963952 -9.8125 12.875 C-9.21405273 11.98554688 -9.21405273 11.98554688 -8.60351562 11.078125 C-5.95000131 7.18573243 -3.0621624 3.57886832 0 0 Z " fill="#4992CA" transform="translate(80,124)"/>
<path d="M0 0 C1.61230469 1.67382812 1.61230469 1.67382812 3.171875 4.03125 C3.75453125 4.90652344 4.3371875 5.78179687 4.9375 6.68359375 C5.535625 7.61300781 6.13375 8.54242188 6.75 9.5 C7.33265625 10.36753906 7.9153125 11.23507813 8.515625 12.12890625 C13.80512053 20.19074703 17.61030371 28.22060743 22 37 C-2.42 37 -26.84 37 -52 37 C-58 18 -58 18 -58 15 C-57.13012451 14.78907715 -56.26024902 14.5781543 -55.36401367 14.36083984 C-39.0749526 10.39482629 -22.88800193 6.39557292 -7 1 C-4 0 -4 0 0 0 Z " fill="#4992CA" transform="translate(422,124)"/>
<path d="M0 0 C2.05584381 1.08132044 3.36367696 2.12543978 4.8046875 3.94921875 C4.67401687 7.08531397 4.26216615 9.20280621 2.6171875 11.88671875 C-0.16713312 13.5189067 -2.15530616 12.70922034 -5.1953125 11.94921875 C-6.1853125 11.61921875 -7.1753125 11.28921875 -8.1953125 10.94921875 C-9.88076974 10.85634104 -11.5698055 10.81924671 -13.2578125 10.82421875 C-14.13566406 10.82164062 -15.01351563 10.8190625 -15.91796875 10.81640625 C-18.22729516 10.80088451 -18.22729516 10.80088451 -20.1953125 11.94921875 C-20.1953125 13.92921875 -20.1953125 15.90921875 -20.1953125 17.94921875 C-19.03773438 18.54089844 -17.88015625 19.13257813 -16.6875 19.7421875 C-15.14823634 20.53997659 -13.60918505 21.33817551 -12.0703125 22.13671875 C-11.30976563 22.52408203 -10.54921875 22.91144531 -9.765625 23.31054688 C-3.05266686 26.81170176 3.3289478 30.38445857 5.8046875 37.94921875 C6.5437933 44.41867572 6.55236681 50.5197436 3.21484375 56.26171875 C-0.05357257 60.17295379 -4.43233819 62.36156065 -9.1953125 63.94921875 C-19.61959013 64.76654643 -26.90842495 63.86151554 -35.3203125 57.63671875 C-37.1953125 54.94921875 -37.1953125 54.94921875 -37.1953125 51.32421875 C-35.73671377 46.40144805 -35.73671377 46.40144805 -33.1953125 44.94921875 C-29.47174077 45.39205559 -26.91255432 46.53789632 -23.7578125 48.51171875 C-20.04251597 50.64708851 -17.55971696 51.6597032 -13.1953125 50.94921875 C-10.89300484 50.05090859 -10.89300484 50.05090859 -9.1953125 48.94921875 C-8.77722049 46.11769902 -8.77722049 46.11769902 -9.1953125 42.94921875 C-12.65567754 39.69992958 -16.49355897 37.6089986 -20.6953125 35.44921875 C-27.23701628 32.08666073 -32.73753334 29.19319943 -35.1953125 21.94921875 C-35.81751771 16.42525057 -35.93882894 11.65311059 -33.6953125 6.51171875 C-24.41312685 -3.00252154 -12.35136757 -4.40454429 0 0 Z " fill="#050101" transform="translate(356.1953125,225.05078125)"/>
<path d="M0 0 C0.81774399 0.00718552 1.63548798 0.01437103 2.47801208 0.02177429 C3.31626022 0.02223251 4.15450836 0.02269073 5.01815796 0.02316284 C6.79100458 0.0261858 8.56384854 0.03407341 10.33665466 0.0464325 C13.06030105 0.06469239 15.78360775 0.06694219 18.50730896 0.06669617 C20.22671296 0.07161112 21.94611464 0.07743935 23.66551208 0.08427429 C24.4852803 0.08538712 25.30504852 0.08649994 26.1496582 0.08764648 C31.88930783 0.13619504 31.88930783 0.13619504 33.00535583 1.25224304 C33.20848083 3.24833679 33.20848083 3.24833679 33.25535583 5.68974304 C33.28113708 6.49282898 33.30691833 7.29591492 33.33348083 8.12333679 C33.22519958 8.82587585 33.11691833 9.52841492 33.00535583 10.25224304 C29.60637911 12.51822753 28.4421641 12.48966958 24.46238708 12.44755554 C22.85267029 12.43788757 22.85267029 12.43788757 21.21043396 12.42802429 C19.53110779 12.40288757 19.53110779 12.40288757 17.81785583 12.37724304 C16.68670349 12.3682196 15.55555115 12.35919617 14.39012146 12.34989929 C11.59510955 12.32631269 8.80020624 12.29044145 6.00535583 12.25224304 C6.00535583 17.20224304 6.00535583 22.15224304 6.00535583 27.25224304 C10.85201694 27.17322478 10.85201694 27.17322478 15.69822693 27.07206726 C17.46822858 27.05743134 19.23808038 27.1529579 21.00535583 27.25224304 C21.66535583 27.91224304 22.32535583 28.57224304 23.00535583 29.25224304 C22.42843276 35.82916612 22.42843276 35.82916612 21.00535583 37.25224304 C18.47257934 37.32544467 15.97431666 37.34451873 13.44285583 37.31474304 C10.98848083 37.29411804 8.53410583 37.27349304 6.00535583 37.25224304 C6.00535583 42.20224304 6.00535583 47.15224304 6.00535583 52.25224304 C8.6775824 52.21743835 8.6775824 52.21743835 11.40379333 52.18193054 C13.72930999 52.16317638 16.05483116 52.1449758 18.38035583 52.12724304 C19.55598083 52.11048523 20.73160583 52.09372742 21.94285583 52.07646179 C23.6250824 52.06679382 23.6250824 52.06679382 25.34129333 52.05693054 C26.37818298 52.04645691 27.41507263 52.03598328 28.48338318 52.02519226 C31.00535583 52.25224304 31.00535583 52.25224304 33.00535583 54.25224304 C33.27098083 56.12724304 33.27098083 56.12724304 33.25535583 58.25224304 C33.26309021 59.30411804 33.26309021 59.30411804 33.27098083 60.37724304 C33.00535583 62.25224304 33.00535583 62.25224304 31.00535583 64.25224304 C28.23200156 64.45206329 25.5606594 64.53203504 22.78660583 64.51786804 C21.97292542 64.51978149 21.159245 64.52169495 20.32090759 64.52366638 C18.59934683 64.52502831 16.87777581 64.52133132 15.15623474 64.51298523 C12.51586414 64.50228562 9.87617394 64.51288004 7.23582458 64.52568054 C5.56525016 64.52435895 3.89467616 64.52179656 2.22410583 64.51786804 C1.0350061 64.52394073 1.0350061 64.52394073 -0.17811584 64.53013611 C-5.76472389 64.48216332 -5.76472389 64.48216332 -7.99464417 62.25224304 C-8.24861145 59.74736023 -8.24861145 59.74736023 -8.25343323 56.54911804 C-8.25973755 55.35447937 -8.26604187 54.1598407 -8.27253723 52.92900085 C-8.26848877 51.63317078 -8.26444031 50.3373407 -8.26026917 49.00224304 C-8.26161595 47.66467722 -8.26355659 46.32711187 -8.2660675 44.98954773 C-8.26901817 42.18513838 -8.2647231 39.38085636 -8.25538635 36.57646179 C-8.2439917 32.97819382 -8.2505515 29.38022418 -8.26253128 25.78196716 C-8.26975153 23.01963546 -8.26746123 20.25737471 -8.2622757 17.49504089 C-8.26028891 15.52185371 -8.26637258 13.54866379 -8.27253723 11.57548523 C-8.26623291 10.38084656 -8.25992859 9.18620789 -8.25343323 7.95536804 C-8.25184204 6.89994812 -8.25025085 5.8445282 -8.24861145 4.75712585 C-7.71725571 -0.48364314 -4.50340991 0.01829304 0 0 Z " fill="#040101" transform="translate(197.99464416503906,223.7477569580078)"/>
<path d="M0 0 C1.32451172 0.01353516 1.32451172 0.01353516 2.67578125 0.02734375 C3.67158203 0.04474609 3.67158203 0.04474609 4.6875 0.0625 C5.36071284 2.31055002 6.02584123 4.56102224 6.6875 6.8125 C7.05875 8.06546875 7.43 9.3184375 7.8125 10.609375 C8.6875 14.0625 8.6875 14.0625 8.6875 18.0625 C-22.9925 18.0625 -54.6725 18.0625 -87.3125 18.0625 C-87.3125 14.7625 -87.3125 11.4625 -87.3125 8.0625 C-82.13481313 7.36557941 -77.04106659 6.88877624 -71.81640625 6.66796875 C-70.37113866 6.60161972 -68.92590878 6.53444544 -67.48071289 6.46655273 C-66.72968292 6.43165741 -65.97865295 6.39676208 -65.2048645 6.36080933 C-51.69422222 5.71823755 -38.29758429 4.68030968 -24.875 3 C-23.81770187 2.86807755 -23.81770187 2.86807755 -22.73904419 2.73348999 C-15.12895255 1.80739451 -15.12895255 1.80739451 -7.57714844 0.51220703 C-5.00219686 0.00088094 -2.62236086 -0.03496481 0 0 Z " fill="#4891C8" transform="translate(345.3125,142.9375)"/>
<path d="M0 0 C31.68 0 63.36 0 96 0 C94.66135489 6.69322557 93.49999204 11.86365589 91 18 C85.00421841 18.23512869 79.44736027 17.53371578 73.53125 16.5703125 C67.37195362 15.57555888 61.19308851 14.75299485 55 14 C54.32275879 13.9175 53.64551758 13.835 52.94775391 13.75 C35.3678792 11.6727104 17.66927776 10.9266687 0 10 C0 6.7 0 3.4 0 0 Z " fill="#4992C9" transform="translate(258,351)"/>
<path d="M0 0 C31.68 0 63.36 0 96 0 C96 3.3 96 6.6 96 10 C94.72125 10.06058594 93.4425 10.12117188 92.125 10.18359375 C90.4166589 10.26807216 88.70832599 10.35271641 87 10.4375 C86.16082031 10.47681641 85.32164062 10.51613281 84.45703125 10.55664062 C80.57568103 10.75221254 76.73887103 10.99709343 72.88671875 11.51953125 C69.59015069 11.9270467 66.38037523 12.11148663 63.06323242 12.18969727 C50.17714393 12.53494771 37.49857636 14.43308464 24.7590332 16.27246094 C23.97102325 16.38478561 23.18301331 16.49711029 22.37112427 16.61283875 C20.88784992 16.82501802 19.40518426 17.04151794 17.92330933 17.26325989 C13.55314274 17.88934958 9.39888451 18.0971634 5 18 C4.16112944 15.56427941 3.32873471 13.12666783 2.5 10.6875 C2.14228516 9.65206055 2.14228516 9.65206055 1.77734375 8.59570312 C0.76791737 5.61068511 0 3.17341086 0 0 Z " fill="#4992CA" transform="translate(147,351)"/>
<path d="M0 0 C-0.45890625 0.38671875 -0.9178125 0.7734375 -1.390625 1.171875 C-5.40850204 4.58187715 -5.40850204 4.58187715 -9.125 8.3125 C-11 10 -11 10 -13.08203125 10.29296875 C-17.41243073 11.34223556 -20.80834344 13.65247308 -24.5625 16 C-25.36171875 16.4947583 -26.1609375 16.9895166 -26.984375 17.49926758 C-33.61624421 21.65553263 -39.86146381 26.13994771 -46 31 C-47.20076172 31.91265625 -47.20076172 31.91265625 -48.42578125 32.84375 C-61.66095094 43.06797274 -73.61891527 54.90279997 -84 68 C-86.62573061 67.35702496 -89.25057303 66.71075589 -91.875 66.0625 C-92.62136719 65.88009766 -93.36773437 65.69769531 -94.13671875 65.50976562 C-99.7734375 64.11328125 -99.7734375 64.11328125 -102 63 C-97.98744996 53.27466686 -86.01529922 45.28285424 -78 39 C-77.02675781 38.20980469 -76.05351563 37.41960937 -75.05078125 36.60546875 C-54.41723502 20.16594321 -30.79914497 8.93925197 -6.02734375 0.20703125 C-5.301521 -0.04973389 -4.57569824 -0.30649902 -3.82788086 -0.57104492 C-2 -1 -2 -1 0 0 Z " fill="#3A87B6" transform="translate(193,49)"/>
<path d="M0 0 C5.80391864 0.04183004 11.61703448 0.76973961 17.3515625 1.6328125 C29.9960574 3.53456924 42.62804594 4.69324325 55.375 5.625 C56.2255899 5.68725769 57.07617981 5.74951538 57.95254517 5.81365967 C68.96398268 6.61308767 79.97986175 7.33170665 91 8 C91 11.3 91 14.6 91 18 C59.32 18 27.64 18 -5 18 C-4.318714 13.91228402 -3.58498651 10.15312571 -2.5 6.1875 C-2.2421875 5.23230469 -1.984375 4.27710938 -1.71875 3.29296875 C-1 1 -1 1 0 0 Z " fill="#4992CA" transform="translate(152,143)"/>
<path d="M0 0 C2.85194531 2.41597915 5.1691689 5.23963405 7.52734375 8.12109375 C15.53303457 17.65909058 24.05723568 25.83479194 33.83984375 33.55859375 C35.25136719 34.71294922 35.25136719 34.71294922 36.69140625 35.890625 C47.61480928 44.62652484 59.62692969 52.6321933 72.2265625 58.73828125 C75.1052986 60.13572596 77.46431393 61.63102475 79.83984375 63.80859375 C80.41734375 64.329375 80.99484375 64.85015625 81.58984375 65.38671875 C82.00234375 65.7734375 82.41484375 66.16015625 82.83984375 66.55859375 C79.67539064 67.59258977 77.87360293 67.52665429 74.7421875 66.44140625 C73.95054199 66.1690918 73.15889648 65.89677734 72.34326172 65.61621094 C71.49650879 65.30844727 70.64975586 65.00068359 69.77734375 64.68359375 C68.89191895 64.36551758 68.00649414 64.04744141 67.09423828 63.71972656 C46.80158434 56.24822572 27.95203957 45.79165836 10.83984375 32.55859375 C10.03804687 31.94886719 9.23625 31.33914063 8.41015625 30.7109375 C1.17631291 25.08333094 -5.53762119 18.88540554 -12.16015625 12.55859375 C-13.01383789 11.75083496 -13.01383789 11.75083496 -13.88476562 10.92675781 C-15.34970609 9.51076319 -16.75986026 8.0385473 -18.16015625 6.55859375 C-18.16015625 5.89859375 -18.16015625 5.23859375 -18.16015625 4.55859375 C-15.58190492 3.66519968 -12.9994941 2.79371982 -10.41015625 1.93359375 C-9.68054688 1.67835938 -8.9509375 1.423125 -8.19921875 1.16015625 C-2.86528982 -0.58549322 -2.86528982 -0.58549322 0 0 Z " fill="#3B87B6" transform="translate(109.16015625,395.44140625)"/>
<path d="M0 0 C3.8517909 -0.68844424 7.16842942 -0.88693763 11 0 C14.32688208 3.11601232 16.17683956 6.91497641 18.25 10.9375 C19.51367436 13.22633846 20.77936157 15.51406656 22.046875 17.80078125 C22.36591797 18.3909906 22.68496094 18.98119995 23.01367188 19.58929443 C25.30414634 23.81994392 27.75725204 27.91490137 30.328125 31.98046875 C31.02647461 33.09494385 31.72482422 34.20941895 32.44433594 35.35766602 C33.79144075 37.49879473 35.14853242 39.6336799 36.51660156 41.76147461 C37.42104004 43.22919312 37.42104004 43.22919312 38.34375 44.7265625 C39.15102539 46.00394287 39.15102539 46.00394287 39.97460938 47.30712891 C41.38039514 50.9989901 40.96022651 53.18460036 40 57 C38.77828652 59.5011858 37.55104827 61.76794329 36.09765625 64.12109375 C35.70432602 64.77916519 35.31099579 65.43723663 34.90574646 66.11524963 C33.63711142 68.23048322 32.3514935 70.3346197 31.0625 72.4375 C30.18318058 73.88191001 29.30427496 75.32657201 28.42578125 76.77148438 C27.12792882 78.90525712 25.82889042 81.03821627 24.52420044 83.16781616 C22.21417209 86.94903638 19.99835828 90.75437996 17.90234375 94.66015625 C12.51015145 104.53414351 12.51015145 104.53414351 7.9609375 105.9375 C5.09560339 105.99553208 2.75552534 105.75436435 0 105 C1.55939511 100.68234478 3.74651803 96.85067597 6.10546875 92.93359375 C6.70890862 91.92148582 6.70890862 91.92148582 7.32453918 90.88893127 C8.60881458 88.73641468 9.89797253 86.58687347 11.1875 84.4375 C12.03485007 83.02038844 12.88185837 81.60307247 13.72851562 80.18554688 C14.14336212 79.49143707 14.55820862 78.79732727 14.98562622 78.08218384 C15.81296371 76.69574298 16.63871932 75.30835688 17.46286011 73.92001343 C19.33301916 70.77183771 21.21764831 67.63873406 23.17431641 64.54345703 C23.8141748 63.50946777 24.4540332 62.47547852 25.11328125 61.41015625 C25.67442627 60.52593994 26.23557129 59.64172363 26.8137207 58.73071289 C28.34756138 55.1999436 28.42111397 52.82272088 28 49 C26.62802483 45.69792879 26.62802483 45.69792879 24.59765625 42.5 C24.24425171 41.90614502 23.89084717 41.31229004 23.5267334 40.70043945 C22.38611417 38.79138337 21.22469825 36.8959802 20.0625 35 C19.27647339 33.69227071 18.49188897 32.38367351 17.70874023 31.07421875 C15.82011788 27.92353683 13.91575391 24.78281883 12.00341797 21.64648438 C10.22093839 18.72165657 8.45069405 15.78946007 6.68334961 12.85546875 C5.65237647 11.14878266 4.60992854 9.44904216 3.56640625 7.75 C2.11895973 5.20884701 1.05413075 2.72048466 0 0 Z " fill="#D5342F" transform="translate(17,203)"/>
<path d="M0 0 C2.04377248 0.42755478 4.08494996 0.86752264 6.125 1.3125 C7.26195313 1.55613281 8.39890625 1.79976563 9.5703125 2.05078125 C13.00268516 3.00074316 15.8769589 4.30558409 19 6 C17.81324334 8.08375974 16.62567248 10.16704764 15.4375 12.25 C15.07833496 12.880271 14.71916992 13.51054199 14.34912109 14.15991211 C11.43442778 19.26478925 8.45634965 24.33016722 5.4453125 29.37890625 C3.75188313 32.32277623 3.75188313 32.32277623 2 37 C-6.25 37 -14.5 37 -23 37 C-18.9989844 28.6275044 -14.98132438 20.58527694 -9.8125 12.875 C-9.40918457 12.27292725 -9.00586914 11.67085449 -8.59033203 11.05053711 C-5.93425206 7.17270373 -3.05548858 3.57106836 0 0 Z " fill="#3B88B8" transform="translate(80,124)"/>
<path d="M0 0 C8.25 0 16.5 0 25 0 C26.134375 2.35125 27.26875 4.7025 28.4375 7.125 C31.61862963 13.62165426 35.18270994 19.70419074 39.29272461 25.65673828 C40.25015303 27.06872033 41.13326696 28.53060001 42 30 C41 32 41 32 37.54296875 33.359375 C36.09385079 33.83130486 34.64185936 34.29447887 33.1875 34.75 C32.46240234 34.99621094 31.73730469 35.24242187 30.99023438 35.49609375 C25.73409186 37.15997784 25.73409186 37.15997784 22.77734375 36.515625 C20.20085361 34.31853011 18.29617871 31.76013811 16.375 29 C15.73510132 28.09350708 15.73510132 28.09350708 15.08227539 27.16870117 C9.37124479 18.8844198 3.19599355 9.58798064 0 0 Z " fill="#3B88B8" transform="translate(57,351)"/>
</svg>
